<svg id="Layer_1" data-name="Layer 1" xmlns="http://www.w3.org/2000/svg" viewBox="0 0 426.16 133.44"><defs><style>.cls-1{fill:#fff;}.cls-2{fill:#7d4e24;}.cls-3{fill:#432918;}.cls-4{fill:#b17f4a;}.cls-5{fill:#ca9e67;}.cls-6{fill:#1d1d1b;}.cls-7{fill:#ffed00;}.cls-7,.cls-8{stroke:#1d1d1b;stroke-miterlimit:10;stroke-width:1.12px;}.cls-8{fill:#c8b826;}</style></defs><title>logomm</title><path class="cls-1" d="M428.23,141v24.63a37.59,37.59,0,0,1-75.17,0V126.7c0-5.71,9.26-10.34,20.67-10.34h33.83c11.41,0,20.67,4.63,20.67,10.34Z" transform="translate(-23.03 -100.54)"/><path class="cls-1" d="M428.23,121.21v5.49c0-5.71-9.26-10.34-20.67-10.34H373.73c-11.41,0-20.67,4.63-20.67,10.34v-5.49a20.67,20.67,0,0,1,20.67-20.67h33.83A20.67,20.67,0,0,1,428.23,121.21Z" transform="translate(-23.03 -100.54)"/><path class="cls-1" d="M353.06,164.82h-8.64a12.33,12.33,0,0,1-12.33-12.33V136.6a12.34,12.34,0,0,1,12.33-12.33h8.64Z" transform="translate(-23.03 -100.54)"/><path class="cls-1" d="M428.23,164.82h8.63a12.33,12.33,0,0,0,12.33-12.33V136.6a12.34,12.34,0,0,0-12.33-12.33h-8.63Z" transform="translate(-23.03 -100.54)"/><path class="cls-1" d="M379.86,164.82H372a2.93,2.93,0,0,1-2.93-2.92v-3a4.78,4.78,0,0,1,4.77-4.77H378a4.77,4.77,0,0,1,4.77,4.77v3A2.92,2.92,0,0,1,379.86,164.82Z" transform="translate(-23.03 -100.54)"/><path class="cls-1" d="M409.58,164.82h-7.86a2.93,2.93,0,0,1-2.93-2.92v-3a4.78,4.78,0,0,1,4.78-4.77h4.17a4.78,4.78,0,0,1,4.77,4.77v3A2.93,2.93,0,0,1,409.58,164.82Z" transform="translate(-23.03 -100.54)"/><rect class="cls-1" x="360.05" y="75.96" width="4.2" height="5.44" rx="2.1"/><rect class="cls-1" x="371.56" y="75.96" width="4.2" height="5.44" rx="2.1"/><path class="cls-1" d="M428.23,158.84h2.44A12.33,12.33,0,0,0,443,146.51v-3.92a12.33,12.33,0,0,0-12.33-12.33h-2.44Z" transform="translate(-23.03 -100.54)"/><path class="cls-1" d="M353,158.84h-2.45a12.33,12.33,0,0,1-12.33-12.33v-3.92a12.33,12.33,0,0,1,12.33-12.33H353Z" transform="translate(-23.03 -100.54)"/><circle class="cls-1" cx="352.9" cy="58.95" r="2.18"/><circle class="cls-1" cx="382.48" cy="58.95" r="2.18"/><path class="cls-2" d="M130.92,164.19v27.63a42.19,42.19,0,0,1-84.37,0V148.16c0-6.4,10.4-11.6,23.2-11.6h38c12.81,0,23.2,5.2,23.2,11.6Z" transform="translate(-23.03 -100.54)"/><path class="cls-3" d="M130.92,142v6.15c0-6.4-10.39-11.6-23.2-11.6h-38c-12.8,0-23.2,5.2-23.2,11.6V142a23.2,23.2,0,0,1,23.21-23.19h38A23.18,23.18,0,0,1,130.92,142Z" transform="translate(-23.03 -100.54)"/><path class="cls-4" d="M46.56,190.93H36.87A13.83,13.83,0,0,1,23,177.1V159.28a13.84,13.84,0,0,1,13.84-13.84h9.69Z" transform="translate(-23.03 -100.54)"/><path class="cls-5" d="M130.92,190.93h9.69a13.83,13.83,0,0,0,13.84-13.83V159.28a13.84,13.84,0,0,0-13.84-13.84h-9.69Z" transform="translate(-23.03 -100.54)"/><path class="cls-1" d="M76.64,190.93H67.81a3.28,3.28,0,0,1-3.28-3.28V184.3A5.36,5.36,0,0,1,69.88,179h4.68a5.36,5.36,0,0,1,5.36,5.35v3.35A3.28,3.28,0,0,1,76.64,190.93Z" transform="translate(-23.03 -100.54)"/><path class="cls-1" d="M110,190.93h-8.83a3.28,3.28,0,0,1-3.28-3.28V184.3a5.36,5.36,0,0,1,5.35-5.35h4.69a5.36,5.36,0,0,1,5.35,5.35v3.35A3.28,3.28,0,0,1,110,190.93Z" transform="translate(-23.03 -100.54)"/><rect class="cls-6" x="57.22" y="103.49" width="4.72" height="6.1" rx="2.36"/><rect class="cls-6" x="70.14" y="103.49" width="4.72" height="6.1" rx="2.36"/><path class="cls-3" d="M130.92,184.22h2.75a13.84,13.84,0,0,0,13.83-13.84V166a13.83,13.83,0,0,0-13.83-13.83h-2.75Z" transform="translate(-23.03 -100.54)"/><path class="cls-3" d="M46.53,184.22H43.79A13.84,13.84,0,0,1,30,170.38V166a13.83,13.83,0,0,1,13.84-13.83h2.74Z" transform="translate(-23.03 -100.54)"/><circle class="cls-6" cx="49.2" cy="84.4" r="2.44"/><circle class="cls-6" cx="82.39" cy="84.4" r="2.44"/><path class="cls-7" d="M118.49,200.57c.84.47,1.25,1.81,1.17,4.37-.46,14.66-14.67,26.11-31.75,25.57S57.37,217.67,57.82,203c.06-2.05.36-3.31.85-4,3-3.91,13.86,15.43,28.55,15.89C101.32,215.4,114.56,198.29,118.49,200.57Z" transform="translate(-23.03 -100.54)"/><path class="cls-8" d="M118.49,200.57c-3.76,11.37-16.14,19.49-30.58,19-14.29-.45-26-9.14-29.24-20.54,3-3.91,13.86,15.43,28.55,15.89C101.32,215.4,114.56,198.29,118.49,200.57Z" transform="translate(-23.03 -100.54)"/><path class="cls-5" d="M102.2,142.12v20H96.53v-20Z" transform="translate(-23.03 -100.54)"/><path class="cls-5" d="M113.62,162.7l-5.26-1.86,3.9-10.93a2.81,2.81,0,0,0,.16-.85,1.85,1.85,0,0,0-.59-1.36,1.92,1.92,0,0,0-1.39-.57,1.83,1.83,0,0,0-1.37.58,2,2,0,0,0,0,2.8,1.88,1.88,0,0,0,1.38.57A3.61,3.61,0,0,0,111,151l-2.37,5.74a11.43,11.43,0,0,1-4.49-3.11,6.83,6.83,0,0,1-1.37-4.35,7.6,7.6,0,0,1,7.66-7.69,7.35,7.35,0,0,1,5.32,2.24,7.07,7.07,0,0,1,2.28,5.22,14.2,14.2,0,0,1-1.07,4.33Z" transform="translate(-23.03 -100.54)"/><path class="cls-5" d="M94.4,143.32a5.05,5.05,0,0,0-4-1.69H80.21v0a5.87,5.87,0,0,0-2.42.58,6,6,0,0,0-2.59-.59H65a5.5,5.5,0,0,0-4,1.69,6,6,0,0,0-1.63,4.38v14.41h6v-13c0-1.07.29-1.6.88-1.6a.65.65,0,0,1,.63.32,3.49,3.49,0,0,1,.16,1.28v13H73V149c0-1,.3-1.49.88-1.49a.64.64,0,0,1,.63.32,3.48,3.48,0,0,1,.15,1.28v13h6v-13c0-1.07.29-1.6.88-1.6a.65.65,0,0,1,.63.32,3.49,3.49,0,0,1,.16,1.28v13h5.95V149c0-1,.29-1.49.87-1.49a.64.64,0,0,1,.63.32,3.48,3.48,0,0,1,.15,1.28v13h6v-13.9A7.35,7.35,0,0,0,94.4,143.32Z" transform="translate(-23.03 -100.54)"/></svg>