<svg id="Layer_1" data-name="Layer 1" xmlns="http://www.w3.org/2000/svg" viewBox="0 0 420.97 139.61"><defs><style>.cls-1,.cls-9{fill:#ffed00;}.cls-1,.cls-10,.cls-2,.cls-9{stroke:#1d1d1b;stroke-miterlimit:10;}.cls-1,.cls-2{stroke-width:1.38px;}.cls-10,.cls-2{fill:#c8b826;}.cls-3{fill:#7d4e24;}.cls-4{fill:#432918;}.cls-5{fill:#b17f4a;}.cls-6{fill:#ca9e67;}.cls-7{fill:#fff;}.cls-11,.cls-8{fill:#1d1d1b;}.cls-10,.cls-9{stroke-width:1.12px;}.cls-11{font-size:17.59px;font-family:ArialMT, Arial;}.cls-12{letter-spacing:-0.07em;}</style></defs><title>logokavandid</title><path class="cls-1" d="M143.86,165.31c.77,1.43.18,3.72-2.21,7.34-13.67,20.71-44.31,24.58-68.42,8.66S40.65,135.69,54.31,115c1.91-2.9,3.45-4.45,4.73-4.93,7.84-3,6.25,34.53,27,48.23C106,171.44,140.22,158.55,143.86,165.31Z" transform="translate(-28.23 -99.72)"/><path class="cls-2" d="M143.86,165.31c-15.52,13.05-40.56,13.74-61,.28C62.73,152.27,53.52,129.32,59,110.06c7.84-3,6.25,34.53,27,48.23C106,171.44,140.22,158.55,143.86,165.31Z" transform="translate(-28.23 -99.72)"/><path class="cls-1" d="M124.37,186.81c.33,1.59-.9,3.61-4.23,6.39-19.06,15.89-49.51,10.78-68-11.42s-18-53.07,1-69c2.66-2.23,4.58-3.27,5.94-3.36,8.36-.56-4,34.87,12,54C86.31,181.75,122.83,179.28,124.37,186.81Z" transform="translate(-28.23 -99.72)"/><path class="cls-2" d="M124.37,186.81c-18.62,8-42.8,1.47-58.45-17.29-15.48-18.57-17.69-43.2-6.86-60.06,8.36-.56-4,34.87,12,54C86.31,181.75,122.83,179.28,124.37,186.81Z" transform="translate(-28.23 -99.72)"/><path class="cls-1" d="M103,201.51c-.09,1.62-1.8,3.26-5.73,5.09-22.51,10.45-50.62-2.33-62.79-28.54s-3.79-55.93,18.71-66.38c3.15-1.47,5.27-2,6.61-1.72,8.22,1.61-12.8,32.68-2.33,55.23C67.54,186.83,103.47,193.84,103,201.51Z" transform="translate(-28.23 -99.72)"/><path class="cls-2" d="M103,201.51c-20.06,3-41.74-9.59-52-31.75-10.18-21.93-6-46.3,8.83-59.8,8.22,1.61-12.8,32.68-2.33,55.23C67.54,186.83,103.47,193.84,103,201.51Z" transform="translate(-28.23 -99.72)"/><path class="cls-3" d="M428.23,146.42v24.63a37.59,37.59,0,0,1-75.17,0V132.13c0-5.71,9.26-10.34,20.67-10.34h33.83c11.41,0,20.67,4.63,20.67,10.34Z" transform="translate(-28.23 -99.72)"/><path class="cls-4" d="M428.23,126.64v5.49c0-5.71-9.26-10.34-20.67-10.34H373.73c-11.41,0-20.67,4.63-20.67,10.34v-5.49A20.67,20.67,0,0,1,373.73,106h33.83A20.67,20.67,0,0,1,428.23,126.64Z" transform="translate(-28.23 -99.72)"/><path class="cls-5" d="M353.06,170.25h-8.64a12.33,12.33,0,0,1-12.33-12.33V142a12.33,12.33,0,0,1,12.33-12.33h8.64Z" transform="translate(-28.23 -99.72)"/><path class="cls-6" d="M428.22,170.25h8.64a12.33,12.33,0,0,0,12.33-12.33V142a12.33,12.33,0,0,0-12.33-12.33h-8.64Z" transform="translate(-28.23 -99.72)"/><path class="cls-7" d="M379.86,170.25H372a2.92,2.92,0,0,1-2.92-2.92v-3a4.78,4.78,0,0,1,4.77-4.77H378a4.77,4.77,0,0,1,4.77,4.77v3A2.92,2.92,0,0,1,379.86,170.25Z" transform="translate(-28.23 -99.72)"/><path class="cls-7" d="M409.58,170.25h-7.86a2.93,2.93,0,0,1-2.93-2.92v-3a4.78,4.78,0,0,1,4.77-4.77h4.18a4.78,4.78,0,0,1,4.77,4.77v3A2.93,2.93,0,0,1,409.58,170.25Z" transform="translate(-28.23 -99.72)"/><rect class="cls-8" x="354.85" y="82.21" width="4.2" height="5.44" rx="2.1"/><rect class="cls-8" x="366.36" y="82.21" width="4.2" height="5.44" rx="2.1"/><path class="cls-4" d="M428.22,164.26h2.45A12.33,12.33,0,0,0,443,151.94V148a12.33,12.33,0,0,0-12.33-12.33h-2.45Z" transform="translate(-28.23 -99.72)"/><path class="cls-4" d="M353,164.26h-2.44a12.33,12.33,0,0,1-12.33-12.32V148a12.33,12.33,0,0,1,12.33-12.33H353Z" transform="translate(-28.23 -99.72)"/><circle class="cls-8" cx="347.7" cy="65.2" r="2.18"/><circle class="cls-8" cx="377.28" cy="65.2" r="2.18"/><path class="cls-3" d="M280.31,145.09v27.63a42.18,42.18,0,0,1-84.36,0V129.06c0-6.4,10.39-11.6,23.2-11.6h38c12.8,0,23.19,5.2,23.19,11.6Z" transform="translate(-28.23 -99.72)"/><path class="cls-4" d="M280.31,122.9v6.16c0-6.4-10.39-11.6-23.19-11.6h-38c-12.81,0-23.2,5.2-23.2,11.6V122.9a23.19,23.19,0,0,1,23.21-23.18h38A23.18,23.18,0,0,1,280.31,122.9Z" transform="translate(-28.23 -99.72)"/><path class="cls-5" d="M196,171.83h-9.69A13.84,13.84,0,0,1,172.42,158V140.17a13.84,13.84,0,0,1,13.84-13.83H196Z" transform="translate(-28.23 -99.72)"/><path class="cls-6" d="M280.31,171.83H290A13.84,13.84,0,0,0,303.85,158V140.17A13.84,13.84,0,0,0,290,126.34h-9.7Z" transform="translate(-28.23 -99.72)"/><path class="cls-7" d="M226,171.83h-8.82a3.28,3.28,0,0,1-3.29-3.28V165.2a5.35,5.35,0,0,1,5.36-5.35H224a5.34,5.34,0,0,1,5.35,5.35v3.35A3.28,3.28,0,0,1,226,171.83Z" transform="translate(-28.23 -99.72)"/><path class="cls-7" d="M259.39,171.83h-8.82a3.28,3.28,0,0,1-3.29-3.28V165.2a5.35,5.35,0,0,1,5.36-5.35h4.68a5.34,5.34,0,0,1,5.35,5.35v3.35A3.28,3.28,0,0,1,259.39,171.83Z" transform="translate(-28.23 -99.72)"/><rect class="cls-8" x="201.42" y="85.21" width="4.72" height="6.1" rx="2.36"/><rect class="cls-8" x="214.34" y="85.21" width="4.72" height="6.1" rx="2.36"/><path class="cls-4" d="M280.31,165.11h2.75a13.84,13.84,0,0,0,13.84-13.83v-4.39a13.84,13.84,0,0,0-13.84-13.83h-2.75Z" transform="translate(-28.23 -99.72)"/><path class="cls-4" d="M195.93,165.11h-2.75a13.84,13.84,0,0,1-13.84-13.83v-4.39a13.84,13.84,0,0,1,13.84-13.83h2.75Z" transform="translate(-28.23 -99.72)"/><circle class="cls-8" cx="193.39" cy="66.12" r="2.44"/><circle class="cls-8" cx="226.59" cy="66.12" r="2.44"/><path class="cls-9" d="M267.89,181.46c.83.48,1.24,1.82,1.16,4.38-.45,14.66-14.67,26.1-31.74,25.57s-30.55-12.84-30.09-27.49c.06-2.06.35-3.31.84-3.95,3-3.91,13.86,15.43,28.55,15.89C250.71,196.3,264,179.19,267.89,181.46Z" transform="translate(-28.23 -99.72)"/><path class="cls-10" d="M267.89,181.46c-3.77,11.38-16.15,19.49-30.59,19-14.28-.44-26-9.13-29.24-20.53,3-3.91,13.86,15.43,28.55,15.89C250.71,196.3,264,179.19,267.89,181.46Z" transform="translate(-28.23 -99.72)"/><text class="cls-11" transform="translate(175.91 133.9)"><tspan class="cls-12">V</tspan><tspan x="10.43" y="0">ALITUD</tspan></text></svg>